<svg width="202" height="201" viewBox="0 0 202 201" fill="none" xmlns="http://www.w3.org/2000/svg">
<rect width="202" height="200.653" rx="10" fill="#ECEFF6"/>
<rect x="0.5" y="0.5" width="201" height="199.653" rx="9.5" stroke="#A0AEC0" stroke-opacity="0.2"/>
<g clip-path="url(#clip0_3457_1497)">
<path d="M133.848 73.4639H108.002C106.897 73.4639 106.002 74.3593 106.002 75.4639V76.9121C106.002 78.0166 106.897 78.9121 108.002 78.9121H131.848C132.953 78.9121 133.848 79.8075 133.848 80.9121V134.118C133.848 135.223 132.953 136.118 131.848 136.118H108.002C106.897 136.118 106.002 137.014 106.002 138.118V139.567C106.002 140.671 106.897 141.567 108.002 141.567H138.81C139.915 141.567 140.81 140.671 140.81 139.567V78.9121C140.81 77.4671 140.077 76.0814 138.771 75.0596C137.465 74.0379 135.695 73.4639 133.848 73.4639Z" fill="#A0AEC0"/>
<path d="M112.097 89.0425C112.097 87.9379 112.993 87.0425 114.097 87.0425H115.562C116.667 87.0425 117.562 87.9379 117.562 89.0425V90.5075C117.562 91.6121 116.667 92.5075 115.562 92.5075H114.097C112.993 92.5075 112.097 91.6121 112.097 90.5075V89.0425Z" fill="#A0AEC0"/>
<path d="M123.027 89.0425C123.027 87.9379 123.923 87.0425 125.027 87.0425H126.492C127.597 87.0425 128.492 87.9379 128.492 89.0425V90.5075C128.492 91.6121 127.597 92.5075 126.492 92.5075H125.027C123.923 92.5075 123.027 91.6121 123.027 90.5075V89.0425Z" fill="#A0AEC0"/>
<path d="M112.097 107.245C112.097 106.141 112.993 105.245 114.097 105.245H115.562C116.667 105.245 117.562 106.141 117.562 107.245V108.71C117.562 109.815 116.667 110.71 115.562 110.71H114.097C112.993 110.71 112.097 109.815 112.097 108.71V107.245Z" fill="#A0AEC0"/>
<path d="M122.859 107.245C122.859 106.141 123.755 105.245 124.859 105.245H126.324C127.429 105.245 128.324 106.141 128.324 107.245V108.71C128.324 109.815 127.429 110.71 126.324 110.71H124.859C123.755 110.71 122.859 109.815 122.859 108.71V107.245Z" fill="#A0AEC0"/>
<path d="M112.097 124.649C112.097 123.544 112.993 122.649 114.097 122.649H115.562C116.667 122.649 117.562 123.544 117.562 124.649V126.114C117.562 127.219 116.667 128.114 115.562 128.114H114.097C112.993 128.114 112.097 127.219 112.097 126.114V124.649Z" fill="#A0AEC0"/>
<path d="M123.027 124.649C123.027 123.544 123.923 122.649 125.027 122.649H126.492C127.597 122.649 128.492 123.544 128.492 124.649V126.114C128.492 127.219 127.597 128.114 126.492 128.114H125.027C123.923 128.114 123.027 127.219 123.027 126.114V124.649Z" fill="#A0AEC0"/>
<path d="M100.998 59.8433H64.8471C63.1187 59.8433 61.4611 60.4517 60.2389 61.5348C59.0167 62.6178 58.3301 64.0867 58.3301 65.6184V139.566C58.3301 140.671 59.2255 141.566 60.3301 141.566H71.7005C72.805 141.566 73.7005 140.671 73.7005 139.566V135.394C73.7005 134.29 74.5959 133.394 75.7005 133.394H90.1449C91.2495 133.394 92.1449 134.29 92.1449 135.394V139.566C92.1449 140.671 93.0404 141.566 94.1449 141.566H105.515C106.62 141.566 107.515 140.671 107.515 139.566V65.6184C107.515 64.0867 106.829 62.6178 105.607 61.5348C104.384 60.4517 102.727 59.8433 100.998 59.8433ZM73.7005 117.774C73.7005 118.878 72.805 119.774 71.7005 119.774H69.5523C68.4477 119.774 67.5523 118.878 67.5523 117.774V116.325C67.5523 115.221 68.4477 114.325 69.5523 114.325H71.7005C72.805 114.325 73.7005 115.221 73.7005 116.325V117.774ZM73.7005 104.153C73.7005 105.258 72.805 106.153 71.7005 106.153H69.5523C68.4477 106.153 67.5523 105.258 67.5523 104.153V102.705C67.5523 101.6 68.4477 100.705 69.5523 100.705H71.7005C72.805 100.705 73.7005 101.6 73.7005 102.705V104.153ZM73.7005 90.5325C73.7005 91.6371 72.805 92.5325 71.7005 92.5325H69.5523C68.4477 92.5325 67.5523 91.6371 67.5523 90.5325V89.0843C67.5523 87.9798 68.4477 87.0843 69.5523 87.0843H71.7005C72.805 87.0843 73.7005 87.9798 73.7005 89.0843V90.5325ZM73.7005 76.912C73.7005 78.0166 72.805 78.912 71.7005 78.912H69.5523C68.4477 78.912 67.5523 78.0166 67.5523 76.912V75.4638C67.5523 74.3592 68.4477 73.4638 69.5523 73.4638H71.7005C72.805 73.4638 73.7005 74.3592 73.7005 75.4638V76.912ZM85.9968 117.774C85.9968 118.878 85.1014 119.774 83.9968 119.774H81.8486C80.7441 119.774 79.8486 118.878 79.8486 117.774V116.325C79.8486 115.221 80.7441 114.325 81.8486 114.325H83.9968C85.1014 114.325 85.9968 115.221 85.9968 116.325V117.774ZM85.9968 104.153C85.9968 105.258 85.1014 106.153 83.9968 106.153H81.8486C80.7441 106.153 79.8486 105.258 79.8486 104.153V102.705C79.8486 101.6 80.7441 100.705 81.8486 100.705H83.9968C85.1014 100.705 85.9968 101.6 85.9968 102.705V104.153ZM85.9968 90.5325C85.9968 91.6371 85.1014 92.5325 83.9968 92.5325H81.8486C80.7441 92.5325 79.8486 91.6371 79.8486 90.5325V89.0843C79.8486 87.9798 80.7441 87.0843 81.8486 87.0843H83.9968C85.1014 87.0843 85.9968 87.9798 85.9968 89.0843V90.5325ZM85.9968 76.912C85.9968 78.0166 85.1014 78.912 83.9968 78.912H81.8486C80.7441 78.912 79.8486 78.0166 79.8486 76.912V75.4638C79.8486 74.3592 80.7441 73.4638 81.8486 73.4638H83.9968C85.1014 73.4638 85.9968 74.3592 85.9968 75.4638V76.912ZM98.2931 117.774C98.2931 118.878 97.3977 119.774 96.2931 119.774H94.1449C93.0404 119.774 92.1449 118.878 92.1449 117.774V116.325C92.1449 115.221 93.0404 114.325 94.1449 114.325H96.2931C97.3977 114.325 98.2931 115.221 98.2931 116.325V117.774ZM98.2931 104.153C98.2931 105.258 97.3977 106.153 96.2931 106.153H94.1449C93.0404 106.153 92.1449 105.258 92.1449 104.153V102.705C92.1449 101.6 93.0404 100.705 94.1449 100.705H96.2931C97.3977 100.705 98.2931 101.6 98.2931 102.705V104.153ZM98.2931 90.5325C98.2931 91.6371 97.3977 92.5325 96.2931 92.5325H94.1449C93.0404 92.5325 92.1449 91.6371 92.1449 90.5325V89.0843C92.1449 87.9798 93.0404 87.0843 94.1449 87.0843H96.2931C97.3977 87.0843 98.2931 87.9798 98.2931 89.0843V90.5325ZM98.2931 76.912C98.2931 78.0166 97.3977 78.912 96.2931 78.912H94.1449C93.0404 78.912 92.1449 78.0166 92.1449 76.912V75.4638C92.1449 74.3592 93.0404 73.4638 94.1449 73.4638H96.2931C97.3977 73.4638 98.2931 74.3592 98.2931 75.4638V76.912Z" fill="#A0AEC0"/>
</g>
<g clip-path="url(#clip1_3457_1497)">
<path d="M133.848 73.4639H108.002C106.897 73.4639 106.002 74.3593 106.002 75.4639V76.9121C106.002 78.0166 106.897 78.9121 108.002 78.9121H131.848C132.953 78.9121 133.848 79.8075 133.848 80.9121V134.118C133.848 135.223 132.953 136.118 131.848 136.118H108.002C106.897 136.118 106.002 137.014 106.002 138.118V139.567C106.002 140.671 106.897 141.567 108.002 141.567H138.81C139.915 141.567 140.81 140.671 140.81 139.567V78.9121C140.81 77.4671 140.077 76.0814 138.771 75.0596C137.465 74.0379 135.695 73.4639 133.848 73.4639Z" fill="#A0AEC0"/>
<path d="M112.097 89.0425C112.097 87.9379 112.993 87.0425 114.097 87.0425H115.562C116.667 87.0425 117.562 87.9379 117.562 89.0425V90.5075C117.562 91.6121 116.667 92.5075 115.562 92.5075H114.097C112.993 92.5075 112.097 91.6121 112.097 90.5075V89.0425Z" fill="#A0AEC0"/>
<path d="M123.027 89.0425C123.027 87.9379 123.923 87.0425 125.027 87.0425H126.492C127.597 87.0425 128.492 87.9379 128.492 89.0425V90.5075C128.492 91.6121 127.597 92.5075 126.492 92.5075H125.027C123.923 92.5075 123.027 91.6121 123.027 90.5075V89.0425Z" fill="#A0AEC0"/>
<path d="M112.097 107.245C112.097 106.141 112.993 105.245 114.097 105.245H115.562C116.667 105.245 117.562 106.141 117.562 107.245V108.71C117.562 109.815 116.667 110.71 115.562 110.71H114.097C112.993 110.71 112.097 109.815 112.097 108.71V107.245Z" fill="#A0AEC0"/>
<path d="M122.859 107.245C122.859 106.141 123.755 105.245 124.859 105.245H126.324C127.429 105.245 128.324 106.141 128.324 107.245V108.71C128.324 109.815 127.429 110.71 126.324 110.71H124.859C123.755 110.71 122.859 109.815 122.859 108.71V107.245Z" fill="#A0AEC0"/>
<path d="M112.097 124.649C112.097 123.544 112.993 122.649 114.097 122.649H115.562C116.667 122.649 117.562 123.544 117.562 124.649V126.114C117.562 127.219 116.667 128.114 115.562 128.114H114.097C112.993 128.114 112.097 127.219 112.097 126.114V124.649Z" fill="#A0AEC0"/>
<path d="M123.027 124.649C123.027 123.544 123.923 122.649 125.027 122.649H126.492C127.597 122.649 128.492 123.544 128.492 124.649V126.114C128.492 127.219 127.597 128.114 126.492 128.114H125.027C123.923 128.114 123.027 127.219 123.027 126.114V124.649Z" fill="#A0AEC0"/>
<path d="M100.998 59.8433H64.8471C63.1187 59.8433 61.4611 60.4517 60.2389 61.5348C59.0167 62.6178 58.3301 64.0867 58.3301 65.6184V139.566C58.3301 140.671 59.2255 141.566 60.3301 141.566H71.7005C72.805 141.566 73.7005 140.671 73.7005 139.566V135.394C73.7005 134.29 74.5959 133.394 75.7005 133.394H90.1449C91.2495 133.394 92.1449 134.29 92.1449 135.394V139.566C92.1449 140.671 93.0404 141.566 94.1449 141.566H105.515C106.62 141.566 107.515 140.671 107.515 139.566V65.6184C107.515 64.0867 106.829 62.6178 105.607 61.5348C104.384 60.4517 102.727 59.8433 100.998 59.8433ZM73.7005 117.774C73.7005 118.878 72.805 119.774 71.7005 119.774H69.5523C68.4477 119.774 67.5523 118.878 67.5523 117.774V116.325C67.5523 115.221 68.4477 114.325 69.5523 114.325H71.7005C72.805 114.325 73.7005 115.221 73.7005 116.325V117.774ZM73.7005 104.153C73.7005 105.258 72.805 106.153 71.7005 106.153H69.5523C68.4477 106.153 67.5523 105.258 67.5523 104.153V102.705C67.5523 101.6 68.4477 100.705 69.5523 100.705H71.7005C72.805 100.705 73.7005 101.6 73.7005 102.705V104.153ZM73.7005 90.5325C73.7005 91.6371 72.805 92.5325 71.7005 92.5325H69.5523C68.4477 92.5325 67.5523 91.6371 67.5523 90.5325V89.0843C67.5523 87.9798 68.4477 87.0843 69.5523 87.0843H71.7005C72.805 87.0843 73.7005 87.9798 73.7005 89.0843V90.5325ZM73.7005 76.912C73.7005 78.0166 72.805 78.912 71.7005 78.912H69.5523C68.4477 78.912 67.5523 78.0166 67.5523 76.912V75.4638C67.5523 74.3592 68.4477 73.4638 69.5523 73.4638H71.7005C72.805 73.4638 73.7005 74.3592 73.7005 75.4638V76.912ZM85.9968 117.774C85.9968 118.878 85.1014 119.774 83.9968 119.774H81.8486C80.7441 119.774 79.8486 118.878 79.8486 117.774V116.325C79.8486 115.221 80.7441 114.325 81.8486 114.325H83.9968C85.1014 114.325 85.9968 115.221 85.9968 116.325V117.774ZM85.9968 104.153C85.9968 105.258 85.1014 106.153 83.9968 106.153H81.8486C80.7441 106.153 79.8486 105.258 79.8486 104.153V102.705C79.8486 101.6 80.7441 100.705 81.8486 100.705H83.9968C85.1014 100.705 85.9968 101.6 85.9968 102.705V104.153ZM85.9968 90.5325C85.9968 91.6371 85.1014 92.5325 83.9968 92.5325H81.8486C80.7441 92.5325 79.8486 91.6371 79.8486 90.5325V89.0843C79.8486 87.9798 80.7441 87.0843 81.8486 87.0843H83.9968C85.1014 87.0843 85.9968 87.9798 85.9968 89.0843V90.5325ZM85.9968 76.912C85.9968 78.0166 85.1014 78.912 83.9968 78.912H81.8486C80.7441 78.912 79.8486 78.0166 79.8486 76.912V75.4638C79.8486 74.3592 80.7441 73.4638 81.8486 73.4638H83.9968C85.1014 73.4638 85.9968 74.3592 85.9968 75.4638V76.912ZM98.2931 117.774C98.2931 118.878 97.3977 119.774 96.2931 119.774H94.1449C93.0404 119.774 92.1449 118.878 92.1449 117.774V116.325C92.1449 115.221 93.0404 114.325 94.1449 114.325H96.2931C97.3977 114.325 98.2931 115.221 98.2931 116.325V117.774ZM98.2931 104.153C98.2931 105.258 97.3977 106.153 96.2931 106.153H94.1449C93.0404 106.153 92.1449 105.258 92.1449 104.153V102.705C92.1449 101.6 93.0404 100.705 94.1449 100.705H96.2931C97.3977 100.705 98.2931 101.6 98.2931 102.705V104.153ZM98.2931 90.5325C98.2931 91.6371 97.3977 92.5325 96.2931 92.5325H94.1449C93.0404 92.5325 92.1449 91.6371 92.1449 90.5325V89.0843C92.1449 87.9798 93.0404 87.0843 94.1449 87.0843H96.2931C97.3977 87.0843 98.2931 87.9798 98.2931 89.0843V90.5325ZM98.2931 76.912C98.2931 78.0166 97.3977 78.912 96.2931 78.912H94.1449C93.0404 78.912 92.1449 78.0166 92.1449 76.912V75.4638C92.1449 74.3592 93.0404 73.4638 94.1449 73.4638H96.2931C97.3977 73.4638 98.2931 74.3592 98.2931 75.4638V76.912Z" fill="#A0AEC0"/>
</g>
<defs>
<clipPath id="clip0_3457_1497">
<rect width="91.5603" height="91.5603" fill="white" transform="translate(54.5464 54.5464)"/>
</clipPath>
<clipPath id="clip1_3457_1497">
<rect width="91.5603" height="91.5603" fill="white" transform="translate(54.5464 54.5464)"/>
</clipPath>
</defs>
</svg>
