<svg width="87" height="87" viewBox="0 0 87 87" fill="none" xmlns="http://www.w3.org/2000/svg">
<rect width="87" height="86.42" rx="10" fill="#D9D9D9"/>
<g clip-path="url(#clip0_1991_1842)">
<path fill-rule="evenodd" clip-rule="evenodd" d="M35.0816 21C35.7016 21 36.2041 21.5037 36.2041 22.125V30.446C36.2041 30.6966 36.5064 30.822 36.6831 30.6449L45.6485 21.6592C46.0694 21.2373 46.6404 21.0001 47.2356 21H57.0658C57.3635 21 57.649 21.1187 57.8595 21.3296L61.2268 24.7046C61.665 25.1439 61.665 25.8561 61.2268 26.2954L56.8872 30.6449C56.7104 30.8221 56.8356 31.125 57.0856 31.125H66.0454C66.3431 31.125 66.6286 31.2437 66.8391 31.4546L70.2064 34.8296C70.6446 35.2689 70.6446 35.9811 70.2064 36.4204L65.7845 40.8523C65.5654 41.0719 65.5654 41.4281 65.7845 41.6477L69.4127 45.2841C70.4291 46.3028 71 47.6844 71 49.125C71 50.5656 70.429 51.9472 69.4127 52.9659L57.0658 65.3409C56.6449 65.7627 56.0739 65.9999 55.4787 66H51.9184C51.2984 66 50.7959 65.4963 50.7959 64.875V56.5539C50.7959 56.3034 50.4936 56.178 50.3169 56.3551L41.3515 65.3409C40.9306 65.7627 40.3596 65.9999 39.7644 66H29.9342C29.6365 66 29.351 65.8813 29.1405 65.6704L25.7732 62.2954C25.335 61.8561 25.335 61.1439 25.7732 60.7046L30.1128 56.3551C30.2896 56.178 30.1644 55.875 29.9144 55.875H20.9546C20.6569 55.875 20.3714 55.7563 20.161 55.5454L16.7936 52.1704C16.3554 51.7311 16.3554 51.0189 16.7936 50.5796L21.2154 46.1477C21.4346 45.9281 21.4346 45.5719 21.2154 45.3523L17.5872 41.7159C16.5709 40.6972 16 39.3156 16 37.875C16 36.4344 16.5709 35.0528 17.5872 34.0341L29.9342 21.6592C30.3551 21.2373 30.9261 21.0001 31.5213 21H35.0816ZM38.529 31.125C37.0405 31.125 35.6123 31.7181 34.5599 32.7729L22.5703 44.7898C22.2168 45.1442 22.4672 45.7499 22.9671 45.75H39.3391C39.8389 45.7501 40.0892 46.3559 39.7359 46.7102L31.5498 54.9148C31.1964 55.2692 31.4467 55.8749 31.9466 55.875H48.471C49.9595 55.875 51.3877 55.2819 52.4401 54.2271L64.4297 42.2102C64.7611 41.8781 64.5619 41.3246 64.1239 41.2566L64.033 41.25H47.6609C47.161 41.25 46.9107 40.6442 47.2641 40.2898L55.4501 32.0852C55.8036 31.7309 55.5533 31.1251 55.0534 31.125H38.529Z" fill="#297AFF"/>
</g>
<defs>
<clipPath id="clip0_1991_1842">
<rect width="55" height="45" fill="white" transform="translate(16 21)"/>
</clipPath>
</defs>
</svg>
