<svg width="202" height="201" viewBox="0 0 202 201" fill="none" xmlns="http://www.w3.org/2000/svg">
<rect width="202" height="200.653" rx="10" fill="#ECEFF6"/>
<rect x="0.5" y="0.5" width="201" height="199.653" rx="9.5" stroke="#A0AEC0" stroke-opacity="0.2"/>
<path d="M146 86C145.997 82.8185 144.731 79.7682 142.481 77.5186C140.232 75.2689 137.182 74.0035 134 74H125V71C124.998 68.6138 124.049 66.3261 122.361 64.6388C120.674 62.9515 118.386 62.0025 116 62H86C83.6138 62.0025 81.3261 62.9515 79.6388 64.6388C77.9515 66.3261 77.0025 68.6138 77 71V74H68C64.8185 74.0035 61.7682 75.2689 59.5186 77.5186C57.2689 79.7682 56.0035 82.8185 56 86V95H146V86ZM119 74H83V71C83 70.2044 83.3161 69.4413 83.8787 68.8787C84.4413 68.3161 85.2044 68 86 68H116C116.796 68 117.559 68.3161 118.121 68.8787C118.684 69.4413 119 70.2044 119 71V74ZM116 102.5C116 103.693 115.526 104.838 114.682 105.682C113.838 106.526 112.693 107 111.5 107H90.5C89.3065 107 88.1619 106.526 87.318 105.682C86.4741 104.838 86 103.693 86 102.5V101.75C86 101.551 85.921 101.36 85.7803 101.22C85.6397 101.079 85.4489 101 85.25 101H56V128C56 131.183 57.2643 134.235 59.5147 136.485C61.7652 138.736 64.8174 140 68 140H134C137.183 140 140.235 138.736 142.485 136.485C144.736 134.235 146 131.183 146 128V101H116.75C116.551 101 116.36 101.079 116.22 101.22C116.079 101.36 116 101.551 116 101.75V102.5Z" fill="#A0AEC0"/>
</svg>
