<svg width="200" height="200" viewBox="0 0 200 200" fill="none" xmlns="http://www.w3.org/2000/svg">
<rect width="200" height="200" rx="10" fill="#ECEFF6"/>
<path fill-rule="evenodd" clip-rule="evenodd" d="M82.3335 59.7603C83.2369 59.7603 84.1033 60.1191 84.7421 60.7579C85.3809 61.3967 85.7397 62.2631 85.7397 63.1665V66.5728H115.261V63.1665C115.261 62.2631 115.619 61.3967 116.258 60.7579C116.897 60.1191 117.763 59.7603 118.667 59.7603C119.57 59.7603 120.437 60.1191 121.075 60.7579C121.714 61.3967 122.073 62.2631 122.073 63.1665V66.6091C122.763 66.6273 123.407 66.6606 124.003 66.709C125.729 66.8453 127.346 67.1541 128.876 67.9353C131.227 69.1328 133.138 71.0438 134.336 73.3943C135.117 74.9249 135.426 76.5417 135.562 78.2675C135.698 79.9253 135.698 81.9463 135.698 84.3761V119.165C135.698 121.595 135.698 123.616 135.562 125.274C135.426 127 135.117 128.616 134.336 130.147C133.139 132.497 131.23 134.408 128.881 135.606C127.346 136.387 125.729 136.696 124.003 136.832C122.346 136.969 120.325 136.969 117.899 136.969H83.1056C80.6758 136.969 78.6547 136.969 76.997 136.832C75.2712 136.696 73.6544 136.387 72.1238 135.606C69.7747 134.411 67.8638 132.503 66.6647 130.156C65.8836 128.621 65.5747 127.004 65.4385 125.278C65.3022 123.621 65.3022 121.6 65.3022 119.174V84.3761C65.3022 81.9463 65.3022 79.9253 65.4385 78.2675C65.5747 76.5417 65.8836 74.9249 66.6647 73.3943C67.8623 71.0438 69.7733 69.1328 72.1238 67.9353C73.6544 67.1541 75.2712 66.8453 76.997 66.709C77.5935 66.6606 78.2369 66.6273 78.9272 66.6091V63.1665C78.9272 62.7192 79.0154 62.2763 79.1865 61.863C79.3577 61.4497 79.6086 61.0742 79.9249 60.7579C80.2412 60.4416 80.6167 60.1907 81.03 60.0195C81.4432 59.8484 81.8862 59.7603 82.3335 59.7603ZM128.886 91.5519H72.1147V119.029C72.1147 121.627 72.1147 123.375 72.2283 124.715C72.3327 126.023 72.5235 126.645 72.7324 127.054C73.2774 128.126 74.1449 128.993 75.2167 129.538C75.6255 129.747 76.2477 129.938 77.5511 130.043C78.8955 130.152 80.6395 130.156 83.2418 130.156H117.758C120.356 130.156 122.105 130.156 123.445 130.043C124.753 129.938 125.375 129.747 125.784 129.538C126.854 128.994 127.723 128.124 128.268 127.054C128.477 126.645 128.668 126.023 128.772 124.715C128.881 123.375 128.886 121.627 128.886 119.029V91.5519ZM93.6877 76.7915C92.7843 76.7915 91.9179 77.1504 91.2791 77.7892C90.6403 78.428 90.2814 79.2944 90.2814 80.1978C90.2814 81.1011 90.6403 81.9675 91.2791 82.6063C91.9179 83.2451 92.7843 83.604 93.6877 83.604H107.313C108.216 83.604 109.082 83.2451 109.721 82.6063C110.36 81.9675 110.719 81.1011 110.719 80.1978C110.719 79.2944 110.36 78.428 109.721 77.7892C109.082 77.1504 108.216 76.7915 107.313 76.7915H93.6877Z" fill="#A0AEC0"/>
<path fill-rule="evenodd" clip-rule="evenodd" d="M129.353 131.559H71.6475V89.8828H129.353V131.559ZM84.6045 114.26C83.4 114.26 82.2443 114.739 81.3926 115.591C80.541 116.443 80.0625 117.597 80.0625 118.802C80.0625 120.006 80.5409 121.162 81.3926 122.014C82.2443 122.865 83.4 123.344 84.6045 123.344C85.8088 123.344 86.9638 122.865 87.8154 122.014C88.6672 121.162 89.1455 120.006 89.1455 118.802C89.1455 117.597 88.6671 116.443 87.8154 115.591C86.9638 114.739 85.8089 114.26 84.6045 114.26ZM100.5 114.26C99.2955 114.26 98.1398 114.739 97.2881 115.591C96.4367 116.442 95.958 117.597 95.958 118.802C95.958 120.006 96.4364 121.162 97.2881 122.014C98.1398 122.865 99.2955 123.344 100.5 123.344C101.705 123.344 102.86 122.865 103.712 122.014C104.564 121.162 105.042 120.006 105.042 118.802C105.042 117.597 104.563 116.442 103.712 115.591C102.86 114.739 101.705 114.26 100.5 114.26ZM84.6045 98.3643C83.4 98.3643 82.2443 98.8426 81.3926 99.6943C80.5409 100.546 80.0625 101.702 80.0625 102.906C80.0626 104.111 80.541 105.266 81.3926 106.117C82.2443 106.969 83.4 107.447 84.6045 107.447C85.8089 107.447 86.9638 106.969 87.8154 106.117C88.6671 105.266 89.1454 104.111 89.1455 102.906C89.1455 101.702 88.6672 100.546 87.8154 99.6943C86.9638 98.8428 85.8088 98.3643 84.6045 98.3643ZM100.5 98.3643C99.2955 98.3643 98.1398 98.8426 97.2881 99.6943C96.4364 100.546 95.958 101.702 95.958 102.906C95.9581 104.111 96.4366 105.266 97.2881 106.117C98.1398 106.969 99.2955 107.447 100.5 107.447C101.705 107.447 102.86 106.969 103.712 106.117C104.563 105.266 105.042 104.111 105.042 102.906C105.042 101.702 104.564 100.546 103.712 99.6943C102.86 98.8426 101.705 98.3643 100.5 98.3643ZM116.396 98.3643C115.191 98.3643 114.036 98.8428 113.185 99.6943C112.333 100.546 111.854 101.702 111.854 102.906C111.855 104.111 112.333 105.266 113.185 106.117C114.036 106.969 115.191 107.447 116.396 107.447C117.6 107.447 118.756 106.969 119.607 106.117C120.459 105.266 120.937 104.111 120.938 102.906C120.938 101.702 120.459 100.546 119.607 99.6943C118.756 98.8426 117.6 98.3643 116.396 98.3643Z" fill="#A0AEC0"/>
</svg>
