<svg width="14" height="14" viewBox="0 0 14 14" fill="none" xmlns="http://www.w3.org/2000/svg">
<path d="M6.99968 11.3829C8.14087 10.3613 9.01417 9.3814 9.61958 8.44321C10.225 7.50501 10.5277 6.68329 10.5277 5.97804C10.5277 4.91462 10.1898 4.0404 9.51414 3.35537C8.83844 2.67035 8.00029 2.32783 6.99968 2.32783C5.99907 2.32783 5.16092 2.67035 4.48522 3.35537C3.80953 4.0404 3.47168 4.91462 3.47168 5.97804C3.47168 6.68329 3.77438 7.50501 4.37978 8.44321C4.98519 9.3814 5.85849 10.3613 6.99968 11.3829ZM6.99968 12.2152C6.88603 12.2152 6.77237 12.1956 6.65872 12.1564C6.54497 12.1171 6.44211 12.0564 6.35014 11.9741C5.82669 11.4917 5.33684 10.9949 4.88058 10.4837C4.42441 9.97261 4.02789 9.46166 3.69101 8.95085C3.35404 8.44005 3.08741 7.93376 2.89112 7.432C2.69483 6.93014 2.59668 6.44549 2.59668 5.97804C2.59668 4.6319 3.03209 3.54209 3.90291 2.7086C4.77383 1.87512 5.80608 1.45837 6.99968 1.45837C8.19328 1.45837 9.22553 1.87512 10.0964 2.7086C10.9673 3.54209 11.4027 4.6319 11.4027 5.97804C11.4027 6.44549 11.3045 6.92917 11.1082 7.42908C10.912 7.9291 10.6463 8.43543 10.3113 8.94808C9.97614 9.46074 9.58049 9.97169 9.12433 10.4809C8.66816 10.9903 8.1783 11.4861 7.65476 11.9684C7.56415 12.0507 7.46115 12.1124 7.34574 12.1535C7.23044 12.1946 7.11508 12.2152 6.99968 12.2152ZM7.0007 6.92144C7.29091 6.92144 7.53902 6.81809 7.74503 6.6114C7.95114 6.4047 8.0542 6.15625 8.0542 5.86604C8.0542 5.57583 7.95085 5.32767 7.74416 5.12156C7.53746 4.91555 7.28896 4.81254 6.99866 4.81254C6.70845 4.81254 6.46034 4.91589 6.25433 5.12258C6.04821 5.32928 5.94516 5.57778 5.94516 5.86808C5.94516 6.15829 6.04851 6.4064 6.2552 6.61242C6.46189 6.81843 6.71039 6.92144 7.0007 6.92144Z" fill="white"/>
</svg>
