<svg width="13" height="13" viewBox="0 0 13 13" fill="none" xmlns="http://www.w3.org/2000/svg">
<path d="M10.5625 1.625H2.4375C2.00667 1.62547 1.59362 1.79683 1.28897 2.10147C0.984326 2.40612 0.81297 2.81917 0.8125 3.25V9.75C0.81297 10.1808 0.984326 10.5939 1.28897 10.8985C1.59362 11.2032 2.00667 11.3745 2.4375 11.375H10.5625C10.9933 11.3745 11.4064 11.2032 11.711 10.8985C12.0157 10.5939 12.187 10.1808 12.1875 9.75V3.25C12.187 2.81917 12.0157 2.40612 11.711 2.10147C11.4064 1.79683 10.9933 1.62547 10.5625 1.625ZM8.53125 3.25C8.7723 3.25 9.00793 3.32148 9.20835 3.4554C9.40877 3.58931 9.56498 3.77966 9.65723 4.00235C9.74947 4.22505 9.77361 4.4701 9.72658 4.70652C9.67956 4.94293 9.56348 5.16009 9.39304 5.33054C9.22259 5.50098 9.00543 5.61706 8.76902 5.66408C8.5326 5.71111 8.28755 5.68697 8.06485 5.59473C7.84216 5.50248 7.65181 5.34627 7.5179 5.14585C7.38398 4.94543 7.3125 4.7098 7.3125 4.46875C7.31284 4.14562 7.44135 3.83582 7.66983 3.60733C7.89832 3.37885 8.20812 3.25034 8.53125 3.25ZM2.4375 10.5625C2.22201 10.5625 2.01535 10.4769 1.86298 10.3245C1.7106 10.1722 1.625 9.96549 1.625 9.75V8.03283L4.03305 5.8924C4.26538 5.68635 4.56754 5.57662 4.87795 5.58559C5.18837 5.59455 5.48369 5.72153 5.70375 5.94064L7.35287 7.58621L4.37658 10.5625H2.4375ZM11.375 9.75C11.375 9.96549 11.2894 10.1722 11.137 10.3245C10.9847 10.4769 10.778 10.5625 10.5625 10.5625H5.52576L8.60869 7.47957C8.82696 7.29395 9.10396 7.19168 9.39049 7.19094C9.67702 7.1902 9.95454 7.29102 10.1738 7.47551L11.375 8.47641V9.75Z" fill="url(#paint0_linear_1996_1492)"/>
<defs>
<linearGradient id="paint0_linear_1996_1492" x1="6.5" y1="1.625" x2="6.5" y2="11.375" gradientUnits="userSpaceOnUse">
<stop stop-color="#5433FF"/>
<stop offset="1" stop-color="#20BDFF"/>
</linearGradient>
</defs>
</svg>
