<svg width="202" height="201" viewBox="0 0 202 201" fill="none" xmlns="http://www.w3.org/2000/svg">
<rect width="202" height="200.653" rx="10" fill="#ECEFF6"/>
<rect x="0.5" y="0.5" width="201" height="199.653" rx="9.5" stroke="#A0AEC0" stroke-opacity="0.2"/>
<path d="M92.2513 67.781C92.894 65.8077 94.1337 64.0901 95.7941 62.8727C97.4546 61.6553 99.4512 61 101.5 61C103.549 61 105.545 61.6553 107.206 62.8727C108.866 64.0901 110.106 65.8077 110.749 67.781C115.213 69.6415 119.032 72.8065 121.719 76.8738C124.406 80.941 125.84 85.7268 125.839 90.6229V110.374L136.285 120.97C136.626 121.315 136.858 121.755 136.953 122.234C137.047 122.713 136.999 123.21 136.815 123.661C136.631 124.113 136.32 124.499 135.919 124.77C135.519 125.042 135.048 125.187 134.567 125.187H68.4334C67.9518 125.187 67.481 125.042 67.0807 124.77C66.6804 124.499 66.3685 124.113 66.1846 123.661C66.0006 123.21 65.9528 122.713 66.0472 122.234C66.1417 121.755 66.3741 121.315 66.715 120.97L77.1612 110.374V90.6229C77.1602 85.7268 78.5943 80.941 81.2813 76.8738C83.9682 72.8065 87.7867 69.6415 92.2513 67.781ZM91.7645 130.125C91.7645 132.744 92.7902 135.256 94.616 137.108C96.4417 138.96 98.918 140 101.5 140C104.082 140 106.558 138.96 108.384 137.108C110.21 135.256 111.236 132.744 111.236 130.125H91.7645Z" fill="#A0AEC0"/>
</svg>
