<svg width="24" height="24" viewBox="0 0 24 24" fill="none" xmlns="http://www.w3.org/2000/svg">
<path d="M2.78688 12.7694L12.3038 22.2867C12.4744 22.4571 12.5637 22.6579 12.5716 22.8892C12.5794 23.1202 12.4868 23.3322 12.2937 23.5253C12.101 23.7114 11.8946 23.8062 11.6747 23.8097C11.4548 23.8129 11.2484 23.7181 11.0556 23.5253L0.414313 12.884C0.261479 12.7312 0.154292 12.5751 0.0927505 12.4159C0.0309171 12.2566 0 12.0828 0 11.8944C0 11.706 0.0309171 11.5321 0.0927505 11.3729C0.154292 11.2136 0.261479 11.0576 0.414313 10.9047L11.0556 0.263435C11.2193 0.0998095 11.4183 0.0123095 11.6528 0.000934542C11.8873 -0.0101488 12.101 0.0773512 12.2937 0.263435C12.4868 0.456518 12.5834 0.66462 12.5834 0.887745C12.5834 1.11116 12.4868 1.31927 12.2937 1.51206L2.78688 11.0194H23.0497C23.2988 11.0194 23.5069 11.1029 23.674 11.2701C23.8411 11.4372 23.9247 11.6453 23.9247 11.8944C23.9247 12.1435 23.8411 12.3516 23.674 12.5187C23.5069 12.6858 23.2988 12.7694 23.0497 12.7694H2.78688Z" fill="white"/>
</svg>
