<svg width="81" height="81" viewBox="0 0 81 81" fill="none" xmlns="http://www.w3.org/2000/svg">
<rect width="81" height="81" rx="40.5" fill="#356FEE"/>
<path d="M25.3889 61C21.8604 61 19 58.1396 19 54.6111C19 53.1302 19.3901 51.8086 20.1704 50.6462C20.9507 49.4838 21.9933 48.5803 23.2981 47.9356C26.0849 46.5984 28.8875 45.5677 31.7059 44.8436C34.5249 44.1199 37.6228 43.758 40.9996 43.758C44.3769 43.758 47.4748 44.1199 50.2933 44.8436C53.1123 45.5677 55.9152 46.5984 58.7019 47.9356C60.0067 48.5803 61.0493 49.4838 61.8296 50.6462C62.6099 51.8086 63 53.1302 63 54.6111C63 58.1396 60.1396 61 56.6111 61H25.3889ZM33.7424 36.1673C31.7365 34.2022 30.7335 31.8323 30.7335 29.0578C30.7335 26.2838 31.7365 23.914 33.7424 21.9484C35.7489 19.9828 38.1679 19 40.9996 19C43.8318 19 46.2509 19.9828 48.2568 21.9484C50.2633 23.914 51.2665 26.2838 51.2665 29.0578C51.2665 31.8323 50.2633 34.2022 48.2568 36.1673C46.2509 38.1328 43.8318 39.1156 40.9996 39.1156C38.1679 39.1156 35.7489 38.1328 33.7424 36.1673Z" fill="#E3E3E3"/>
</svg>
