<svg width="26" height="27" viewBox="0 0 26 27" fill="none" xmlns="http://www.w3.org/2000/svg">
<path d="M2.35594 26.0342C1.68462 26.0342 1.12413 25.8093 0.674479 25.3597C0.224826 24.91 0 24.3496 0 23.6782V5.05677C0 4.38545 0.224826 3.82497 0.674479 3.37531C1.12413 2.92566 1.68462 2.70083 2.35594 2.70083H12.8249C13.068 2.70083 13.2503 2.778 13.3718 2.93234C13.4934 3.08644 13.5541 3.25233 13.5541 3.43C13.5541 3.60767 13.4919 3.77356 13.3674 3.92766C13.2432 4.082 13.0596 4.15917 12.8166 4.15917H2.35594C2.13135 4.15917 1.92561 4.25262 1.7387 4.43953C1.55179 4.62644 1.45833 4.83219 1.45833 5.05677V23.6782C1.45833 23.9028 1.55179 24.1086 1.7387 24.2955C1.92561 24.4824 2.13135 24.5758 2.35594 24.5758H20.9774C21.202 24.5758 21.4077 24.4824 21.5946 24.2955C21.7815 24.1086 21.875 23.9028 21.875 23.6782V13.0689C21.875 12.8258 21.9522 12.6435 22.1065 12.522C22.2606 12.4005 22.4265 12.3397 22.6042 12.3397C22.7818 12.3397 22.9477 12.4005 23.1018 12.522C23.2562 12.6435 23.3333 12.8258 23.3333 13.0689V23.6782C23.3333 24.3496 23.1085 24.91 22.6589 25.3597C22.2092 25.8093 21.6487 26.0342 20.9774 26.0342H2.35594ZM8.75 16.1062V14.4488C8.75 14.1348 8.81356 13.8296 8.94068 13.5333C9.06779 13.2368 9.23696 12.9829 9.44818 12.7717L21.7937 0.426563C21.9544 0.26566 22.1235 0.154342 22.3012 0.0926056C22.4789 0.0308695 22.6659 0 22.8623 0C23.0456 0 23.2246 0.0308695 23.3993 0.0926056C23.5741 0.154342 23.7325 0.256302 23.8747 0.398489L25.4957 1.97167C25.6507 2.13257 25.7685 2.30976 25.849 2.50323C25.9294 2.6967 25.9696 2.89163 25.9696 3.08802C25.9696 3.28417 25.9401 3.46962 25.881 3.64438C25.8222 3.81938 25.7125 3.98721 25.5518 4.14787L13.1221 16.5776C12.9109 16.7888 12.6571 16.9593 12.3608 17.0891C12.0645 17.2192 11.7593 17.2842 11.445 17.2842H9.92797C9.58939 17.2842 9.30842 17.1725 9.08505 16.9491C8.86168 16.7257 8.75 16.4448 8.75 16.1062ZM10.2083 15.8258H11.8012L21.5217 6.10531L20.7251 5.30906L19.8362 4.4563L10.2083 14.0842V15.8258Z" fill="white"/>
</svg>
