<svg width="13" height="16" viewBox="0 0 13 16" fill="none" xmlns="http://www.w3.org/2000/svg">
<path d="M6.29 14.1779C7.92028 12.7185 9.16785 11.3186 10.0327 9.97833C10.8976 8.63806 11.33 7.46417 11.33 6.45667C11.33 4.9375 10.8474 3.68861 9.88208 2.71C8.91681 1.73139 7.71944 1.24208 6.29 1.24208C4.86056 1.24208 3.66319 1.73139 2.69792 2.71C1.73264 3.68861 1.25 4.9375 1.25 6.45667C1.25 7.46417 1.68243 8.63806 2.54729 9.97833C3.41215 11.3186 4.65972 12.7185 6.29 14.1779ZM6.29 15.3669C6.12764 15.3669 5.96528 15.3389 5.80292 15.2829C5.64042 15.2268 5.49347 15.14 5.36208 15.0225C4.61431 14.3333 3.91451 13.6236 3.26271 12.8933C2.61104 12.1632 2.04458 11.4333 1.56333 10.7035C1.08194 9.97382 0.701042 9.25056 0.420625 8.53375C0.140208 7.81681 0 7.12444 0 6.45667C0 4.53361 0.622014 2.97674 1.86604 1.78604C3.11021 0.595347 4.58486 0 6.29 0C7.99514 0 9.46979 0.595347 10.714 1.78604C11.958 2.97674 12.58 4.53361 12.58 6.45667C12.58 7.12444 12.4398 7.81542 12.1594 8.52958C11.879 9.24389 11.4994 9.96722 11.0208 10.6996C10.5421 11.4319 9.97688 12.1619 9.32521 12.8894C8.67354 13.617 7.97375 14.3253 7.22583 15.0144C7.09639 15.1319 6.94924 15.22 6.78438 15.2788C6.61965 15.3375 6.45486 15.3669 6.29 15.3669ZM6.29146 7.80437C6.70604 7.80437 7.06049 7.65674 7.35479 7.36146C7.64924 7.06618 7.79646 6.71125 7.79646 6.29667C7.79646 5.88208 7.64882 5.52757 7.35354 5.23313C7.05826 4.93882 6.70326 4.79167 6.28854 4.79167C5.87396 4.79167 5.51951 4.93931 5.22521 5.23458C4.93076 5.52986 4.78354 5.88486 4.78354 6.29958C4.78354 6.71417 4.93118 7.06861 5.22646 7.36292C5.52174 7.65722 5.87674 7.80437 6.29146 7.80437Z" fill="#E3E3E3"/>
</svg>
