<svg width="121" height="121" viewBox="0 0 121 121" fill="none" xmlns="http://www.w3.org/2000/svg">
<g clip-path="url(#clip0_3288_2)">
<path d="M104.8 25H70C68.8954 25 68 25.8954 68 27V30.2C68 31.3046 68.8954 32.2 70 32.2H102.8C103.905 32.2 104.8 33.0954 104.8 34.2V105.8C104.8 106.905 103.905 107.8 102.8 107.8H70C68.8954 107.8 68 108.695 68 109.8V113C68 114.105 68.8954 115 70 115H112C113.105 115 114 114.105 114 113V32.2C114 30.2904 113.031 28.4591 111.305 27.1088C109.58 25.7586 107.24 25 104.8 25Z" fill="white"/>
<path d="M76.0555 44.9444C76.0555 43.8399 76.951 42.9444 78.0555 42.9444H81.2778C82.3823 42.9444 83.2778 43.8399 83.2778 44.9444V48.1667C83.2778 49.2712 82.3823 50.1667 81.2778 50.1667H78.0555C76.951 50.1667 76.0555 49.2712 76.0555 48.1667V44.9444Z" fill="white"/>
<path d="M90.5 44.9444C90.5 43.8399 91.3954 42.9444 92.5 42.9444H95.7222C96.8268 42.9444 97.7222 43.8399 97.7222 44.9444V48.1667C97.7222 49.2712 96.8268 50.1667 95.7222 50.1667H92.5C91.3954 50.1667 90.5 49.2712 90.5 48.1667V44.9444Z" fill="white"/>
<path d="M76.0555 69C76.0555 67.8954 76.951 67 78.0555 67H81.2778C82.3823 67 83.2778 67.8954 83.2778 69V72.2222C83.2778 73.3268 82.3823 74.2222 81.2778 74.2222H78.0555C76.951 74.2222 76.0555 73.3268 76.0555 72.2222V69Z" fill="white"/>
<path d="M90.2777 69C90.2777 67.8954 91.1731 67 92.2777 67H95.4999C96.6045 67 97.4999 67.8954 97.4999 69V72.2222C97.4999 73.3268 96.6045 74.2222 95.4999 74.2222H92.2777C91.1731 74.2222 90.2777 73.3268 90.2777 72.2222V69Z" fill="white"/>
<path d="M76.0555 92C76.0555 90.8954 76.951 90 78.0555 90H81.2778C82.3823 90 83.2778 90.8954 83.2778 92V95.2222C83.2778 96.3268 82.3823 97.2222 81.2778 97.2222H78.0555C76.951 97.2222 76.0555 96.3268 76.0555 95.2222V92Z" fill="white"/>
<path d="M90.5 92C90.5 90.8954 91.3954 90 92.5 90H95.7222C96.8268 90 97.7222 90.8954 97.7222 92V95.2222C97.7222 96.3268 96.8268 97.2222 95.7222 97.2222H92.5C91.3954 97.2222 90.5 96.3268 90.5 95.2222V92Z" fill="white"/>
<path d="M61.3875 7H13.6125C11.3283 7 9.1377 7.80408 7.52254 9.23536C5.90739 10.6666 5 12.6079 5 14.632V113C5 114.105 5.89543 115 7 115H23.3125C24.4171 115 25.3125 114.105 25.3125 113V106.2C25.3125 105.095 26.2079 104.2 27.3125 104.2H47.6875C48.7921 104.2 49.6875 105.095 49.6875 106.2V113C49.6875 114.105 50.5829 115 51.6875 115H68C69.1046 115 70 114.105 70 113V14.632C70 12.6079 69.0926 10.6666 67.4775 9.23536C65.8623 7.80408 63.6717 7 61.3875 7ZM25.3125 84.2C25.3125 85.3046 24.4171 86.2 23.3125 86.2H19.1875C18.0829 86.2 17.1875 85.3046 17.1875 84.2V81C17.1875 79.8954 18.0829 79 19.1875 79H23.3125C24.4171 79 25.3125 79.8954 25.3125 81V84.2ZM25.3125 66.2C25.3125 67.3046 24.4171 68.2 23.3125 68.2H19.1875C18.0829 68.2 17.1875 67.3046 17.1875 66.2V63C17.1875 61.8954 18.0829 61 19.1875 61H23.3125C24.4171 61 25.3125 61.8954 25.3125 63V66.2ZM25.3125 48.2C25.3125 49.3046 24.4171 50.2 23.3125 50.2H19.1875C18.0829 50.2 17.1875 49.3046 17.1875 48.2V45C17.1875 43.8954 18.0829 43 19.1875 43H23.3125C24.4171 43 25.3125 43.8954 25.3125 45V48.2ZM25.3125 30.2C25.3125 31.3046 24.4171 32.2 23.3125 32.2H19.1875C18.0829 32.2 17.1875 31.3046 17.1875 30.2V27C17.1875 25.8954 18.0829 25 19.1875 25H23.3125C24.4171 25 25.3125 25.8954 25.3125 27V30.2ZM41.5625 84.2C41.5625 85.3046 40.6671 86.2 39.5625 86.2H35.4375C34.3329 86.2 33.4375 85.3046 33.4375 84.2V81C33.4375 79.8954 34.3329 79 35.4375 79H39.5625C40.6671 79 41.5625 79.8954 41.5625 81V84.2ZM41.5625 66.2C41.5625 67.3046 40.6671 68.2 39.5625 68.2H35.4375C34.3329 68.2 33.4375 67.3046 33.4375 66.2V63C33.4375 61.8954 34.3329 61 35.4375 61H39.5625C40.6671 61 41.5625 61.8954 41.5625 63V66.2ZM41.5625 48.2C41.5625 49.3046 40.6671 50.2 39.5625 50.2H35.4375C34.3329 50.2 33.4375 49.3046 33.4375 48.2V45C33.4375 43.8954 34.3329 43 35.4375 43H39.5625C40.6671 43 41.5625 43.8954 41.5625 45V48.2ZM41.5625 30.2C41.5625 31.3046 40.6671 32.2 39.5625 32.2H35.4375C34.3329 32.2 33.4375 31.3046 33.4375 30.2V27C33.4375 25.8954 34.3329 25 35.4375 25H39.5625C40.6671 25 41.5625 25.8954 41.5625 27V30.2ZM57.8125 84.2C57.8125 85.3046 56.9171 86.2 55.8125 86.2H51.6875C50.5829 86.2 49.6875 85.3046 49.6875 84.2V81C49.6875 79.8954 50.5829 79 51.6875 79H55.8125C56.9171 79 57.8125 79.8954 57.8125 81V84.2ZM57.8125 66.2C57.8125 67.3046 56.9171 68.2 55.8125 68.2H51.6875C50.5829 68.2 49.6875 67.3046 49.6875 66.2V63C49.6875 61.8954 50.5829 61 51.6875 61H55.8125C56.9171 61 57.8125 61.8954 57.8125 63V66.2ZM57.8125 48.2C57.8125 49.3046 56.9171 50.2 55.8125 50.2H51.6875C50.5829 50.2 49.6875 49.3046 49.6875 48.2V45C49.6875 43.8954 50.5829 43 51.6875 43H55.8125C56.9171 43 57.8125 43.8954 57.8125 45V48.2ZM57.8125 30.2C57.8125 31.3046 56.9171 32.2 55.8125 32.2H51.6875C50.5829 32.2 49.6875 31.3046 49.6875 30.2V27C49.6875 25.8954 50.5829 25 51.6875 25H55.8125C56.9171 25 57.8125 25.8954 57.8125 27V30.2Z" fill="white"/>
</g>
<defs>
<clipPath id="clip0_3288_2">
<rect width="121" height="121" fill="white"/>
</clipPath>
</defs>
</svg>
