<svg width="121" height="121" viewBox="0 0 121 121" fill="none" xmlns="http://www.w3.org/2000/svg">
<g clip-path="url(#clip0_3429_956)">
<path d="M104.8 25H70C68.8954 25 68 25.8954 68 27V30.2C68 31.3046 68.8954 32.2 70 32.2H102.8C103.905 32.2 104.8 33.0954 104.8 34.2V105.8C104.8 106.905 103.905 107.8 102.8 107.8H70C68.8954 107.8 68 108.695 68 109.8V113C68 114.105 68.8954 115 70 115H112C113.105 115 114 114.105 114 113V32.2C114 30.2904 113.031 28.4591 111.305 27.1088C109.58 25.7586 107.24 25 104.8 25Z" fill="#356FEE"/>
<path d="M76.0557 44.9443C76.0557 43.8398 76.9511 42.9443 78.0557 42.9443H81.2779C82.3825 42.9443 83.2779 43.8398 83.2779 44.9443V48.1666C83.2779 49.2711 82.3825 50.1666 81.2779 50.1666H78.0557C76.9511 50.1666 76.0557 49.2711 76.0557 48.1666V44.9443Z" fill="#356FEE"/>
<path d="M90.5 44.9443C90.5 43.8398 91.3954 42.9443 92.5 42.9443H95.7222C96.8268 42.9443 97.7222 43.8398 97.7222 44.9443V48.1666C97.7222 49.2711 96.8268 50.1666 95.7222 50.1666H92.5C91.3954 50.1666 90.5 49.2711 90.5 48.1666V44.9443Z" fill="#356FEE"/>
<path d="M76.0557 69C76.0557 67.8954 76.9511 67 78.0557 67H81.2779C82.3825 67 83.2779 67.8954 83.2779 69V72.2222C83.2779 73.3268 82.3825 74.2222 81.2779 74.2222H78.0557C76.9511 74.2222 76.0557 73.3268 76.0557 72.2222V69Z" fill="#356FEE"/>
<path d="M90.2778 69C90.2778 67.8954 91.1733 67 92.2778 67H95.5001C96.6046 67 97.5001 67.8954 97.5001 69V72.2222C97.5001 73.3268 96.6046 74.2222 95.5001 74.2222H92.2778C91.1733 74.2222 90.2778 73.3268 90.2778 72.2222V69Z" fill="#356FEE"/>
<path d="M76.0557 92C76.0557 90.8954 76.9511 90 78.0557 90H81.2779C82.3825 90 83.2779 90.8954 83.2779 92V95.2222C83.2779 96.3268 82.3825 97.2222 81.2779 97.2222H78.0557C76.9511 97.2222 76.0557 96.3268 76.0557 95.2222V92Z" fill="#356FEE"/>
<path d="M90.5 92C90.5 90.8954 91.3954 90 92.5 90H95.7222C96.8268 90 97.7222 90.8954 97.7222 92V95.2222C97.7222 96.3268 96.8268 97.2222 95.7222 97.2222H92.5C91.3954 97.2222 90.5 96.3268 90.5 95.2222V92Z" fill="#356FEE"/>
<path d="M61.3875 7H13.6125C11.3283 7 9.1377 7.80408 7.52254 9.23536C5.90739 10.6666 5 12.6079 5 14.632V113C5 114.105 5.89543 115 7 115H23.3125C24.4171 115 25.3125 114.105 25.3125 113V106.2C25.3125 105.095 26.2079 104.2 27.3125 104.2H47.6875C48.7921 104.2 49.6875 105.095 49.6875 106.2V113C49.6875 114.105 50.5829 115 51.6875 115H68C69.1046 115 70 114.105 70 113V14.632C70 12.6079 69.0926 10.6666 67.4775 9.23536C65.8623 7.80408 63.6717 7 61.3875 7ZM25.3125 84.2C25.3125 85.3046 24.4171 86.2 23.3125 86.2H19.1875C18.0829 86.2 17.1875 85.3046 17.1875 84.2V81C17.1875 79.8954 18.0829 79 19.1875 79H23.3125C24.4171 79 25.3125 79.8954 25.3125 81V84.2ZM25.3125 66.2C25.3125 67.3046 24.4171 68.2 23.3125 68.2H19.1875C18.0829 68.2 17.1875 67.3046 17.1875 66.2V63C17.1875 61.8954 18.0829 61 19.1875 61H23.3125C24.4171 61 25.3125 61.8954 25.3125 63V66.2ZM25.3125 48.2C25.3125 49.3046 24.4171 50.2 23.3125 50.2H19.1875C18.0829 50.2 17.1875 49.3046 17.1875 48.2V45C17.1875 43.8954 18.0829 43 19.1875 43H23.3125C24.4171 43 25.3125 43.8954 25.3125 45V48.2ZM25.3125 30.2C25.3125 31.3046 24.4171 32.2 23.3125 32.2H19.1875C18.0829 32.2 17.1875 31.3046 17.1875 30.2V27C17.1875 25.8954 18.0829 25 19.1875 25H23.3125C24.4171 25 25.3125 25.8954 25.3125 27V30.2ZM41.5625 84.2C41.5625 85.3046 40.6671 86.2 39.5625 86.2H35.4375C34.3329 86.2 33.4375 85.3046 33.4375 84.2V81C33.4375 79.8954 34.3329 79 35.4375 79H39.5625C40.6671 79 41.5625 79.8954 41.5625 81V84.2ZM41.5625 66.2C41.5625 67.3046 40.6671 68.2 39.5625 68.2H35.4375C34.3329 68.2 33.4375 67.3046 33.4375 66.2V63C33.4375 61.8954 34.3329 61 35.4375 61H39.5625C40.6671 61 41.5625 61.8954 41.5625 63V66.2ZM41.5625 48.2C41.5625 49.3046 40.6671 50.2 39.5625 50.2H35.4375C34.3329 50.2 33.4375 49.3046 33.4375 48.2V45C33.4375 43.8954 34.3329 43 35.4375 43H39.5625C40.6671 43 41.5625 43.8954 41.5625 45V48.2ZM41.5625 30.2C41.5625 31.3046 40.6671 32.2 39.5625 32.2H35.4375C34.3329 32.2 33.4375 31.3046 33.4375 30.2V27C33.4375 25.8954 34.3329 25 35.4375 25H39.5625C40.6671 25 41.5625 25.8954 41.5625 27V30.2ZM57.8125 84.2C57.8125 85.3046 56.9171 86.2 55.8125 86.2H51.6875C50.5829 86.2 49.6875 85.3046 49.6875 84.2V81C49.6875 79.8954 50.5829 79 51.6875 79H55.8125C56.9171 79 57.8125 79.8954 57.8125 81V84.2ZM57.8125 66.2C57.8125 67.3046 56.9171 68.2 55.8125 68.2H51.6875C50.5829 68.2 49.6875 67.3046 49.6875 66.2V63C49.6875 61.8954 50.5829 61 51.6875 61H55.8125C56.9171 61 57.8125 61.8954 57.8125 63V66.2ZM57.8125 48.2C57.8125 49.3046 56.9171 50.2 55.8125 50.2H51.6875C50.5829 50.2 49.6875 49.3046 49.6875 48.2V45C49.6875 43.8954 50.5829 43 51.6875 43H55.8125C56.9171 43 57.8125 43.8954 57.8125 45V48.2ZM57.8125 30.2C57.8125 31.3046 56.9171 32.2 55.8125 32.2H51.6875C50.5829 32.2 49.6875 31.3046 49.6875 30.2V27C49.6875 25.8954 50.5829 25 51.6875 25H55.8125C56.9171 25 57.8125 25.8954 57.8125 27V30.2Z" fill="#356FEE"/>
</g>
<defs>
<clipPath id="clip0_3429_956">
<rect width="121" height="121" fill="white"/>
</clipPath>
</defs>
</svg>
