<svg width="130" height="130" viewBox="0 0 130 130" fill="none" xmlns="http://www.w3.org/2000/svg">
<g clip-path="url(#clip0_3429_907)">
<path d="M111.945 28.8887H83.0557V36.1109H111.945V111.944H83.0557V119.166H119.167V36.1109C119.167 34.1954 118.406 32.3584 117.051 31.004C115.697 29.6496 113.86 28.8887 111.945 28.8887Z" fill="#356FEE"/>
<path d="M71.7888 10.8335H22.0999C20.0695 10.8335 18.1223 11.6401 16.6866 13.0758C15.2509 14.5115 14.4443 16.4587 14.4443 18.4891V119.167H79.4443V18.4891C79.4443 16.4587 78.6378 14.5115 77.2021 13.0758C75.7664 11.6401 73.8192 10.8335 71.7888 10.8335ZM72.2221 111.945H61.3888V101.111H32.4999V111.945H21.6666V18.4891C21.6666 18.4321 21.6778 18.3758 21.6995 18.3232C21.7213 18.2706 21.7532 18.2229 21.7935 18.1826C21.8337 18.1424 21.8815 18.1105 21.9341 18.0887C21.9866 18.0669 22.043 18.0557 22.0999 18.0557H71.7888C71.8457 18.0557 71.902 18.0669 71.9546 18.0887C72.0072 18.1105 72.055 18.1424 72.0952 18.1826C72.1354 18.2229 72.1674 18.2706 72.1891 18.3232C72.2109 18.3758 72.2221 18.4321 72.2221 18.4891V111.945Z" fill="#356FEE"/>
<path d="M28.8889 28.8887H36.1111V36.1109H28.8889V28.8887Z" fill="#356FEE"/>
<path d="M43.3333 28.8887H50.5555V36.1109H43.3333V28.8887Z" fill="#356FEE"/>
<path d="M57.7778 28.8887H65.0001V36.1109H57.7778V28.8887Z" fill="#356FEE"/>
<path d="M28.8889 46.9443H36.1111V54.1666H28.8889V46.9443Z" fill="#356FEE"/>
<path d="M43.3333 46.9443H50.5555V54.1666H43.3333V46.9443Z" fill="#356FEE"/>
<path d="M57.7778 46.9443H65.0001V54.1666H57.7778V46.9443Z" fill="#356FEE"/>
<path d="M28.8889 65H36.1111V72.2222H28.8889V65Z" fill="#356FEE"/>
<path d="M43.3333 65H50.5555V72.2222H43.3333V65Z" fill="#356FEE"/>
<path d="M57.7778 65H65.0001V72.2222H57.7778V65Z" fill="#356FEE"/>
<path d="M28.8889 83.0557H36.1111V90.2779H28.8889V83.0557Z" fill="#356FEE"/>
<path d="M43.3333 83.0557H50.5555V90.2779H43.3333V83.0557Z" fill="#356FEE"/>
<path d="M57.7778 83.0557H65.0001V90.2779H57.7778V83.0557Z" fill="#356FEE"/>
<path d="M83.0557 46.9443H90.2779V54.1666H83.0557V46.9443Z" fill="#356FEE"/>
<path d="M97.5 46.9443H104.722V54.1666H97.5V46.9443Z" fill="#356FEE"/>
<path d="M83.0557 65H90.2779V72.2222H83.0557V65Z" fill="#356FEE"/>
<path d="M97.5 65H104.722V72.2222H97.5V65Z" fill="#356FEE"/>
<path d="M83.0557 83.0557H90.2779V90.2779H83.0557V83.0557Z" fill="#356FEE"/>
<path d="M97.5 83.0557H104.722V90.2779H97.5V83.0557Z" fill="#356FEE"/>
</g>
<defs>
<clipPath id="clip0_3429_907">
<rect width="130" height="130" fill="white"/>
</clipPath>
</defs>
</svg>
