<svg width="34" height="34" viewBox="4 3 26 28" fill="none" xmlns="http://www.w3.org/2000/svg">
<path fill-rule="evenodd" clip-rule="evenodd" d="M11.332 4.60413C11.6138 4.60413 11.8841 4.71607 12.0833 4.91532C12.2826 5.11458 12.3945 5.38483 12.3945 5.66663V6.72913H21.6029V5.66663C21.6029 5.38483 21.7148 5.11458 21.9141 4.91532C22.1133 4.71607 22.3836 4.60413 22.6654 4.60413C22.9472 4.60413 23.2174 4.71607 23.4167 4.91532C23.6159 5.11458 23.7279 5.38483 23.7279 5.66663V6.74046C23.9432 6.74613 24.1439 6.75652 24.3299 6.77163C24.8683 6.81413 25.3726 6.91046 25.85 7.15413C26.5832 7.52766 27.1793 8.12376 27.5529 8.85696C27.7965 9.33438 27.8929 9.83871 27.9354 10.377C27.9779 10.8941 27.9779 11.5245 27.9779 12.2825V23.1341C27.9779 23.892 27.9779 24.5225 27.9354 25.0395C27.8929 25.5779 27.7965 26.0822 27.5529 26.5596C27.1797 27.2926 26.5841 27.8887 25.8514 28.2625C25.3726 28.5061 24.8683 28.6025 24.3299 28.645C23.8129 28.6875 23.1824 28.6875 22.4259 28.6875H11.5729C10.8149 28.6875 10.1845 28.6875 9.66745 28.645C9.12911 28.6025 8.62478 28.5061 8.14736 28.2625C7.41459 27.8897 6.81855 27.2946 6.44453 26.5625C6.20086 26.0836 6.10453 25.5793 6.06203 25.041C6.01953 24.5239 6.01953 23.8935 6.01953 23.137V12.2825C6.01953 11.5245 6.01953 10.8941 6.06203 10.377C6.10453 9.83871 6.20086 9.33438 6.44453 8.85696C6.81806 8.12376 7.41416 7.52766 8.14736 7.15413C8.62478 6.91046 9.12911 6.81413 9.66745 6.77163C9.8535 6.75652 10.0542 6.74613 10.2695 6.74046V5.66663C10.2695 5.5271 10.297 5.38893 10.3504 5.26002C10.4038 5.13112 10.4821 5.01399 10.5807 4.91532C10.6794 4.81666 10.7965 4.7384 10.9254 4.685C11.0543 4.63161 11.1925 4.60413 11.332 4.60413ZM25.8529 14.5208H8.14453V23.0916C8.14453 23.902 8.14453 24.4474 8.17995 24.8653C8.21253 25.2733 8.27203 25.4674 8.3372 25.5949C8.5072 25.9292 8.77778 26.1998 9.11211 26.3698C9.23961 26.435 9.4337 26.4945 9.84028 26.527C10.2596 26.561 10.8036 26.5625 11.6154 26.5625H22.382C23.1924 26.5625 23.7378 26.5625 24.1557 26.527C24.5637 26.4945 24.7578 26.435 24.8853 26.3698C25.219 26.1999 25.4903 25.9286 25.6602 25.5949C25.7254 25.4674 25.7849 25.2733 25.8174 24.8653C25.8514 24.4474 25.8529 23.902 25.8529 23.0916V14.5208ZM14.8737 9.91663C14.5919 9.91663 14.3217 10.0286 14.1224 10.2278C13.9231 10.4271 13.8112 10.6973 13.8112 10.9791C13.8112 11.2609 13.9231 11.5312 14.1224 11.7304C14.3217 11.9297 14.5919 12.0416 14.8737 12.0416H19.1237C19.4055 12.0416 19.6757 11.9297 19.875 11.7304C20.0743 11.5312 20.1862 11.2609 20.1862 10.9791C20.1862 10.6973 20.0743 10.4271 19.875 10.2278C19.6757 10.0286 19.4055 9.91663 19.1237 9.91663H14.8737Z" fill="white"/>
<path d="M26 27H8V14H26V27ZM12.042 21.6045C11.6664 21.6045 11.3057 21.7531 11.04 22.0186C10.7744 22.2842 10.6251 22.6449 10.625 23.0205C10.625 23.3962 10.7744 23.7568 11.04 24.0225C11.3057 24.2881 11.6663 24.4375 12.042 24.4375C12.4175 24.4374 12.7774 24.2879 13.043 24.0225C13.3086 23.7568 13.458 23.3962 13.458 23.0205C13.4579 22.6449 13.3086 22.2842 13.043 22.0186C12.7774 21.7532 12.4174 21.6046 12.042 21.6045ZM17 21.6045C16.6243 21.6045 16.2637 21.753 15.998 22.0186C15.7324 22.2842 15.5831 22.6449 15.583 23.0205C15.583 23.3962 15.7324 23.7568 15.998 24.0225C16.2637 24.2881 16.6243 24.4375 17 24.4375C17.3757 24.4375 17.7363 24.2881 18.002 24.0225C18.2676 23.7568 18.417 23.3962 18.417 23.0205C18.4169 22.6449 18.2676 22.2842 18.002 22.0186C17.7363 21.753 17.3757 21.6045 17 21.6045ZM12.042 16.6455C11.6663 16.6455 11.3057 16.7949 11.04 17.0605C10.7744 17.3262 10.625 17.6868 10.625 18.0625C10.625 18.4382 10.7744 18.7988 11.04 19.0645C11.3057 19.33 11.6664 19.4795 12.042 19.4795C12.4174 19.4794 12.7774 19.3298 13.043 19.0645C13.3086 18.7988 13.458 18.4382 13.458 18.0625C13.458 17.6868 13.3086 17.3262 13.043 17.0605C12.7774 16.7951 12.4175 16.6456 12.042 16.6455ZM17 16.6455C16.6243 16.6455 16.2637 16.7949 15.998 17.0605C15.7324 17.3262 15.583 17.6868 15.583 18.0625C15.583 18.4382 15.7324 18.7988 15.998 19.0645C16.2637 19.3301 16.6243 19.4795 17 19.4795C17.3757 19.4795 17.7363 19.3301 18.002 19.0645C18.2676 18.7988 18.417 18.4382 18.417 18.0625C18.417 17.6868 18.2676 17.3262 18.002 17.0605C17.7363 16.7949 17.3757 16.6455 17 16.6455ZM21.958 16.6455C21.5825 16.6456 21.2226 16.7951 20.957 17.0605C20.6914 17.3262 20.542 17.6868 20.542 18.0625C20.542 18.4382 20.6914 18.7988 20.957 19.0645C21.2226 19.3298 21.5826 19.4794 21.958 19.4795C22.3336 19.4795 22.6943 19.33 22.96 19.0645C23.2256 18.7988 23.375 18.4382 23.375 18.0625C23.375 17.6868 23.2256 17.3262 22.96 17.0605C22.6943 16.7949 22.3337 16.6455 21.958 16.6455Z" fill="white"/>
</svg>
