<svg width="200" height="200" viewBox="0 0 200 200" fill="none" xmlns="http://www.w3.org/2000/svg">
<path d="M33.3333 33.3333C33.3333 28.913 35.0893 24.6738 38.2149 21.5482C41.3405 18.4226 45.5797 16.6666 50 16.6666H116.667C118.877 16.6671 120.996 17.5454 122.558 19.1083L164.225 60.775C165.788 62.3374 166.666 64.4567 166.667 66.6666V166.667C166.667 171.087 164.911 175.326 161.785 178.452C158.659 181.577 154.42 183.333 150 183.333H50C45.5797 183.333 41.3405 181.577 38.2149 178.452C35.0893 175.326 33.3333 171.087 33.3333 166.667V33.3333ZM146.55 66.6666L116.667 36.7833V66.6666H146.55ZM100 33.3333H50V166.667H150V83.3333H108.333C106.123 83.3333 104.004 82.4553 102.441 80.8925C100.878 79.3297 100 77.2101 100 75V33.3333ZM66.6666 108.333C66.6666 106.123 67.5446 104.004 69.1074 102.441C70.6702 100.878 72.7898 100 75 100H125C127.21 100 129.33 100.878 130.893 102.441C132.455 104.004 133.333 106.123 133.333 108.333C133.333 110.543 132.455 112.663 130.893 114.226C129.33 115.789 127.21 116.667 125 116.667H75C72.7898 116.667 70.6702 115.789 69.1074 114.226C67.5446 112.663 66.6666 110.543 66.6666 108.333ZM66.6666 141.667C66.6666 139.456 67.5446 137.337 69.1074 135.774C70.6702 134.211 72.7898 133.333 75 133.333H125C127.21 133.333 129.33 134.211 130.893 135.774C132.455 137.337 133.333 139.456 133.333 141.667C133.333 143.877 132.455 145.996 130.893 147.559C129.33 149.122 127.21 150 125 150H75C72.7898 150 70.6702 149.122 69.1074 147.559C67.5446 145.996 66.6666 143.877 66.6666 141.667Z" fill="#90A1B9"/>
</svg>
