<svg width="130" height="130" viewBox="0 0 130 130" fill="none" xmlns="http://www.w3.org/2000/svg">
<path d="M66.4117 25.7158C66.0337 25.3542 65.5307 25.1523 65.0076 25.1523C64.4845 25.1523 63.9815 25.3542 63.6035 25.7158L16.8594 70.3703C16.6609 70.5602 16.5029 70.7884 16.3951 71.041C16.2873 71.2937 16.2319 71.5657 16.2322 71.8404L16.2246 113.75C16.2246 115.905 17.0806 117.972 18.6044 119.495C20.1281 121.019 22.1947 121.875 24.3496 121.875H48.75C49.8274 121.875 50.8608 121.447 51.6226 120.685C52.3845 119.923 52.8125 118.89 52.8125 117.813V83.2814C52.8125 82.7427 53.0265 82.226 53.4074 81.8451C53.7884 81.4642 54.305 81.2502 54.8438 81.2502H75.1562C75.695 81.2502 76.2116 81.4642 76.5926 81.8451C76.9735 82.226 77.1875 82.7427 77.1875 83.2814V117.813C77.1875 118.89 77.6155 119.923 78.3774 120.685C79.1392 121.447 80.1726 121.875 81.25 121.875H105.64C107.795 121.875 109.862 121.019 111.385 119.495C112.909 117.972 113.765 115.905 113.765 113.75V71.8404C113.766 71.5657 113.71 71.2937 113.602 71.041C113.495 70.7884 113.337 70.5602 113.138 70.3703L66.4117 25.7158Z" fill="#356FEE"/>
<path d="M124.645 61.9912L105.653 43.8217V16.25C105.653 15.1726 105.225 14.1392 104.463 13.3774C103.701 12.6155 102.668 12.1875 101.591 12.1875H89.403C88.3256 12.1875 87.2923 12.6155 86.5304 13.3774C85.7685 14.1392 85.3405 15.1726 85.3405 16.25V24.375L70.6343 10.3137C69.2581 8.92227 67.2116 8.125 65.0001 8.125C62.7962 8.125 60.7548 8.92227 59.3786 10.3162L5.37275 61.9861C3.79346 63.5096 3.59541 66.0156 5.03252 67.666C5.3934 68.0826 5.83527 68.4214 6.33124 68.6618C6.82722 68.9022 7.36692 69.0391 7.9175 69.0643C8.46809 69.0895 9.01803 69.0023 9.53388 68.8082C10.0497 68.6141 10.5207 68.3171 10.9181 67.9352L63.6036 17.5906C63.9816 17.229 64.4846 17.0272 65.0077 17.0272C65.5308 17.0272 66.0338 17.229 66.4118 17.5906L119.102 67.9352C119.879 68.6795 120.918 69.0857 121.993 69.0647C123.069 69.0438 124.092 68.5974 124.838 67.8234C126.397 66.2086 126.268 63.5426 124.645 61.9912Z" fill="#356FEE"/>
</svg>
