<svg width="130" height="130" viewBox="0 0 130 130" fill="none" xmlns="http://www.w3.org/2000/svg">
<path d="M20.3125 53.8281V113.75C20.3125 114.827 20.7405 115.861 21.5024 116.623C22.2642 117.384 23.2976 117.812 24.375 117.812H48.75V83.2812C48.75 81.6651 49.392 80.1151 50.5348 78.9723C51.6776 77.8295 53.2276 77.1875 54.8438 77.1875H75.1562C76.7724 77.1875 78.3224 77.8295 79.4652 78.9723C80.608 80.1151 81.25 81.6651 81.25 83.2812V117.812H105.625C106.702 117.812 107.736 117.384 108.498 116.623C109.259 115.861 109.688 114.827 109.688 113.75V53.8281" stroke="#356FEE" stroke-width="8.125" stroke-linecap="round" stroke-linejoin="round"/>
<path d="M121.875 65L67.765 13.2031C66.4955 11.8625 63.5273 11.8472 62.235 13.2031L8.125 65M101.562 45.4492V16.25H89.375V33.7695" stroke="#356FEE" stroke-width="8.125" stroke-linecap="round" stroke-linejoin="round"/>
</svg>
