<svg width="118" height="112" viewBox="0 0 118 112" fill="none" xmlns="http://www.w3.org/2000/svg">
<path d="M94 0C100.233 0 106.21 2.47588 110.617 6.88299C115.024 11.2901 117.5 17.2674 117.5 23.5V70.5C117.5 76.7326 115.024 82.7099 110.617 87.117C106.21 91.5241 100.233 94 94 94H66.2465L38.2697 110.785C37.4272 111.29 36.4713 111.577 35.4895 111.617C34.5078 111.658 33.5315 111.452 32.6501 111.017C31.7686 110.583 31.0102 109.935 30.4442 109.131C29.8782 108.328 29.5227 107.396 29.4102 106.42L29.375 105.75V94H23.5C17.4708 94 11.6723 91.6827 7.30373 87.5274C2.93518 83.3721 0.330834 77.6966 0.0293757 71.675L0 70.5V23.5C0 17.2674 2.47589 11.2901 6.88299 6.88299C11.2901 2.47588 17.2674 0 23.5 0H94ZM70.5 52.875H35.25C33.6918 52.875 32.1975 53.494 31.0957 54.5957C29.994 55.6975 29.375 57.1919 29.375 58.75C29.375 60.3081 29.994 61.8025 31.0957 62.9043C32.1975 64.006 33.6918 64.625 35.25 64.625H70.5C72.0581 64.625 73.5525 64.006 74.6542 62.9043C75.756 61.8025 76.375 60.3081 76.375 58.75C76.375 57.1919 75.756 55.6975 74.6542 54.5957C73.5525 53.494 72.0581 52.875 70.5 52.875ZM82.25 29.375H35.25C33.6918 29.375 32.1975 29.994 31.0957 31.0957C29.994 32.1975 29.375 33.6919 29.375 35.25C29.375 36.8081 29.994 38.3025 31.0957 39.4043C32.1975 40.506 33.6918 41.125 35.25 41.125H82.25C83.8081 41.125 85.3025 40.506 86.4043 39.4043C87.506 38.3025 88.125 36.8081 88.125 35.25C88.125 33.6919 87.506 32.1975 86.4043 31.0957C85.3025 29.994 83.8081 29.375 82.25 29.375Z" fill="white"/>
</svg>
