<svg width="141" height="141" viewBox="0 0 141 141" fill="none" xmlns="http://www.w3.org/2000/svg">
<path d="M105.75 17.625C111.983 17.625 117.96 20.1009 122.367 24.508C126.774 28.9151 129.25 34.8924 129.25 41.125V88.125C129.25 94.3576 126.774 100.335 122.367 104.742C117.96 109.149 111.983 111.625 105.75 111.625H77.9965L50.0197 128.41C49.1772 128.915 48.2213 129.202 47.2395 129.242C46.2578 129.283 45.2815 129.077 44.4001 128.642C43.5186 128.208 42.7602 127.56 42.1942 126.756C41.6282 125.953 41.2727 125.021 41.1602 124.045L41.125 123.375V111.625H35.25C29.2208 111.625 23.4223 109.308 19.0537 105.152C14.6852 100.997 12.0808 95.3216 11.7794 89.3L11.75 88.125V41.125C11.75 34.8924 14.2259 28.9151 18.633 24.508C23.0401 20.1009 29.0174 17.625 35.25 17.625H105.75ZM82.25 70.5H47C45.4418 70.5 43.9475 71.119 42.8457 72.2207C41.744 73.3225 41.125 74.8169 41.125 76.375C41.125 77.9331 41.744 79.4275 42.8457 80.5293C43.9475 81.631 45.4418 82.25 47 82.25H82.25C83.8081 82.25 85.3025 81.631 86.4042 80.5293C87.506 79.4275 88.125 77.9331 88.125 76.375C88.125 74.8169 87.506 73.3225 86.4042 72.2207C85.3025 71.119 83.8081 70.5 82.25 70.5ZM94 47H47C45.4418 47 43.9475 47.619 42.8457 48.7207C41.744 49.8225 41.125 51.3169 41.125 52.875C41.125 54.4331 41.744 55.9275 42.8457 57.0293C43.9475 58.131 45.4418 58.75 47 58.75H94C95.5581 58.75 97.0525 58.131 98.1543 57.0293C99.256 55.9275 99.875 54.4331 99.875 52.875C99.875 51.3169 99.256 49.8225 98.1543 48.7207C97.0525 47.619 95.5581 47 94 47Z" fill="#356FEE"/>
</svg>
