<svg width="141" height="141" viewBox="0 0 141 141" fill="none" xmlns="http://www.w3.org/2000/svg">
<path d="M47 52.875H94M47 76.375H82.25M105.75 23.5C110.424 23.5 114.907 25.3569 118.213 28.6622C121.518 31.9676 123.375 36.4506 123.375 41.125V88.125C123.375 92.7994 121.518 97.2824 118.213 100.588C114.907 103.893 110.424 105.75 105.75 105.75H76.375L47 123.375V105.75H35.25C30.5756 105.75 26.0926 103.893 22.7872 100.588C19.4819 97.2824 17.625 92.7994 17.625 88.125V41.125C17.625 36.4506 19.4819 31.9676 22.7872 28.6622C26.0926 25.3569 30.5756 23.5 35.25 23.5H105.75Z" stroke="#356FEE" stroke-width="8" stroke-linecap="round" stroke-linejoin="round"/>
</svg>
