<svg width="130" height="130" viewBox="0 0 130 130" fill="none" xmlns="http://www.w3.org/2000/svg">
<path d="M52.8644 21.1844C53.7424 18.5116 55.4362 16.1854 57.7047 14.5365C59.9732 12.8876 62.701 12 65.5 12C68.299 12 71.0268 12.8876 73.2953 14.5365C75.5638 16.1854 77.2576 18.5116 78.1356 21.1844C84.2351 23.7043 89.4519 27.9911 93.1228 33.4999C96.7937 39.0087 98.753 45.4907 98.7515 52.1221V78.8733L113.023 93.2253C113.489 93.6925 113.806 94.2883 113.935 94.9371C114.064 95.5859 113.999 96.2586 113.748 96.8701C113.496 97.4816 113.07 98.0043 112.524 98.3722C111.977 98.7401 111.333 98.9365 110.676 98.9366H20.3244C19.6665 98.9365 19.0234 98.7401 18.4765 98.3722C17.9296 98.0043 17.5035 97.4816 17.2522 96.8701C17.0008 96.2586 16.9355 95.5859 17.0645 94.9371C17.1936 94.2883 17.5111 93.6925 17.9769 93.2253L32.2485 78.8733V52.1221C32.247 45.4907 34.2063 39.0087 37.8772 33.4999C41.5481 27.9911 46.7649 23.7043 52.8644 21.1844ZM52.1994 105.624C52.1994 109.172 53.6007 112.574 56.095 115.082C58.5894 117.591 61.9725 119 65.5 119C69.0275 119 72.4106 117.591 74.905 115.082C77.3993 112.574 78.8006 109.172 78.8006 105.624H52.1994Z" fill="#356FEE"/>
</svg>
