<svg width="130" height="130" viewBox="0 0 130 130" fill="none" xmlns="http://www.w3.org/2000/svg">
<path d="M85.3125 65C80.0921 65 75.0445 62.6691 71.0937 58.4391C67.2521 54.3131 64.906 48.8109 64.4921 42.9508C64.0503 36.6996 65.9572 30.9512 69.8597 26.7617C73.7623 22.5723 79.2187 20.3125 85.3125 20.3125C91.363 20.3125 96.8347 22.6129 100.725 26.7922C104.652 31.0121 106.564 36.7504 106.123 42.9482C105.699 48.816 103.355 54.3156 99.521 58.4365C95.5804 62.6691 90.5353 65 85.3125 65ZM118.785 109.688H51.8425C50.7663 109.693 49.703 109.452 48.7346 108.982C47.7662 108.513 46.9184 107.827 46.2566 106.978C45.5546 106.058 45.0697 104.991 44.8385 103.857C44.6072 102.723 44.6354 101.552 44.921 100.43C47.0589 91.8455 52.3554 84.726 60.2367 79.8434C67.2318 75.5117 76.1363 73.125 85.3125 73.125C94.6689 73.125 103.34 75.4102 110.376 79.7393C118.275 84.5965 123.579 91.7566 125.706 100.445C125.989 101.568 126.014 102.739 125.78 103.873C125.546 105.006 125.059 106.072 124.356 106.991C123.694 107.836 122.849 108.518 121.883 108.985C120.917 109.453 119.858 109.693 118.785 109.688ZM37.3242 66.0156C28.3892 66.0156 20.5334 57.7078 19.8046 47.4982C19.4441 42.2678 21.0742 37.4309 24.375 33.8838C27.6402 30.3723 32.246 28.4375 37.3242 28.4375C42.4023 28.4375 46.9726 30.3824 50.2556 33.9143C53.5818 37.4893 55.2068 42.316 54.8259 47.5033C54.0972 57.7104 46.2439 66.0156 37.3242 66.0156ZM53.9957 74.001C49.5294 71.8174 43.7328 70.7256 37.3267 70.7256C29.8466 70.7256 22.5824 72.6756 16.8695 76.215C10.3923 80.2344 6.03531 86.0869 4.27574 93.1531C4.01824 94.1695 3.99388 95.2309 4.20449 96.2581C4.4151 97.2852 4.85523 98.2514 5.49195 99.0844C6.09611 99.86 6.87011 100.487 7.75442 100.916C8.63873 101.346 9.60979 101.567 10.5929 101.562H38.7765C39.2522 101.562 39.7128 101.395 40.078 101.091C40.4431 100.786 40.6897 100.362 40.7748 99.8943C40.8027 99.7344 40.8382 99.5744 40.8789 99.417C43.032 90.7689 48.0771 83.4615 55.5318 78.1346C55.806 77.9369 56.0265 77.674 56.1734 77.3696C56.3203 77.0652 56.3889 76.7289 56.373 76.3913C56.3571 76.0537 56.2573 75.7254 56.0824 75.4361C55.9076 75.1469 55.6634 74.9058 55.3718 74.7348C54.9732 74.5012 54.5162 74.2549 53.9957 74.001Z" fill="#356FEE"/>
</svg>
